<?xml version="1.0" encoding="utf-8"?>
<!-- Generator: Adobe Illustrator 27.4.0, SVG Export Plug-In . SVG Version: 6.00 Build 0)  -->
<svg version="1.1" id="Layer_1" xmlns="http://www.w3.org/2000/svg" xmlns:xlink="http://www.w3.org/1999/xlink" x="0px" y="0px"
	 viewBox="0 0 274.9 16" style="enable-background:new 0 0 274.9 16;" xml:space="preserve">
<style type="text/css">
	.st0{enable-background:new    ;}
</style>
<g class="st0">
	<path d="M2.5,2h1.7v12H2.5V2z"/>
	<path d="M19.1,2v12h-1.4L10.5,5v8.9H8.8V2h1.4l7.2,8.9V2H19.1z"/>
	<path d="M26,3.5h-4.1V2h9.9v1.5h-4.1v10.5H26V3.5z"/>
	<path d="M34.7,2h1.7v12h-1.7V2z"/>
	<path d="M52.1,13.9l0-8.7l-4.3,7.3h-0.8l-4.3-7.2v8.7H41V2h1.4l5,8.4L52.3,2h1.4l0,12H52.1z"/>
	<path d="M65.9,10.9h-6.4l-1.3,3h-1.8l5.4-12h1.7l5.4,12h-1.8L65.9,10.9z M65.3,9.6l-2.6-5.9l-2.6,5.9H65.3z"/>
	<path d="M73.6,3.5h-4.1V2h9.9v1.5h-4.1v10.5h-1.7V3.5z"/>
	<path d="M90.9,12.4v1.5h-8.7V2h8.4v1.5h-6.7v3.7h6v1.5h-6v3.9H90.9z"/>
	<path d="M102.6,3.5h-4.1V2h9.9v1.5h-4.1v10.5h-1.7V3.5z"/>
	<path d="M119.2,13.9l-2.6-3.7c-0.3,0-0.6,0-0.8,0h-3v3.6h-1.7V2h4.7c1.5,0,2.8,0.4,3.7,1.1c0.9,0.7,1.3,1.8,1.3,3.1
		c0,0.9-0.2,1.7-0.7,2.4s-1.1,1.1-1.9,1.4l2.8,4H119.2z M118.3,8.1c0.6-0.5,0.9-1.1,0.9-2c0-0.9-0.3-1.5-0.9-2
		c-0.6-0.5-1.4-0.7-2.5-0.7H113v5.4h2.9C116.9,8.8,117.8,8.6,118.3,8.1z"/>
	<path d="M132.3,10.9h-6.4l-1.3,3h-1.8l5.4-12h1.7l5.4,12h-1.8L132.3,10.9z M131.7,9.6l-2.6-5.9l-2.6,5.9H131.7z"/>
	<path d="M148.4,2v12H147L139.9,5v8.9h-1.7V2h1.4l7.2,8.9V2H148.4z"/>
	<path d="M153.9,13.6c-0.8-0.3-1.5-0.6-2-1.1l0.6-1.3c0.5,0.4,1,0.7,1.8,1c0.7,0.3,1.4,0.4,2.2,0.4c1,0,1.7-0.2,2.2-0.5
		c0.5-0.3,0.7-0.8,0.7-1.3c0-0.4-0.1-0.7-0.4-1c-0.3-0.3-0.6-0.5-1-0.6c-0.4-0.1-0.9-0.3-1.7-0.5c-0.9-0.2-1.6-0.4-2.2-0.6
		c-0.6-0.2-1-0.5-1.4-1c-0.4-0.5-0.6-1.1-0.6-1.8c0-0.6,0.2-1.2,0.5-1.7c0.3-0.5,0.8-0.9,1.5-1.2s1.5-0.5,2.5-0.5
		c0.7,0,1.4,0.1,2.1,0.3c0.7,0.2,1.3,0.4,1.8,0.8l-0.6,1.4c-0.5-0.3-1-0.6-1.6-0.7c-0.6-0.2-1.1-0.2-1.7-0.2c-1,0-1.7,0.2-2.2,0.5
		s-0.7,0.8-0.7,1.4c0,0.4,0.1,0.7,0.4,1c0.3,0.3,0.6,0.5,1,0.6s1,0.3,1.6,0.5c0.9,0.2,1.6,0.4,2.2,0.6c0.5,0.2,1,0.5,1.4,1
		c0.4,0.4,0.6,1,0.6,1.8c0,0.6-0.2,1.2-0.5,1.7c-0.3,0.5-0.9,0.9-1.6,1.2c-0.7,0.3-1.5,0.5-2.6,0.5
		C155.6,14.1,154.7,13.9,153.9,13.6z"/>
	<path d="M172.9,7.9h1.6v4.7c-0.6,0.5-1.3,0.9-2.1,1.1c-0.8,0.3-1.6,0.4-2.5,0.4c-1.2,0-2.3-0.3-3.3-0.8c-1-0.5-1.7-1.3-2.3-2.2
		c-0.6-0.9-0.8-2-0.8-3.1s0.3-2.2,0.8-3.1c0.6-0.9,1.3-1.7,2.3-2.2c1-0.5,2.1-0.8,3.3-0.8c1,0,1.8,0.2,2.6,0.5
		c0.8,0.3,1.4,0.8,2,1.4l-1.1,1.1c-1-0.9-2.1-1.4-3.5-1.4c-0.9,0-1.7,0.2-2.5,0.6c-0.7,0.4-1.3,0.9-1.7,1.6
		c-0.4,0.7-0.6,1.5-0.6,2.4c0,0.9,0.2,1.6,0.6,2.3s1,1.2,1.7,1.6c0.7,0.4,1.5,0.6,2.4,0.6c1.1,0,2-0.3,2.8-0.8V7.9z"/>
	<path d="M186.8,13.9l-2.6-3.7c-0.3,0-0.6,0-0.8,0h-3v3.6h-1.7V2h4.7c1.5,0,2.8,0.4,3.7,1.1c0.9,0.7,1.3,1.8,1.3,3.1
		c0,0.9-0.2,1.7-0.7,2.4c-0.5,0.6-1.1,1.1-1.9,1.4l2.8,4H186.8z M185.9,8.1c0.6-0.5,0.9-1.1,0.9-2c0-0.9-0.3-1.5-0.9-2
		c-0.6-0.5-1.4-0.7-2.5-0.7h-2.9v5.4h2.9C184.5,8.8,185.3,8.6,185.9,8.1z"/>
	<path d="M200.9,12.4v1.5h-8.7V2h8.4v1.5h-6.7v3.7h6v1.5h-6v3.9H200.9z"/>
	<path d="M205.5,13.6c-0.8-0.3-1.5-0.6-2-1.1l0.6-1.3c0.5,0.4,1,0.7,1.8,1c0.7,0.3,1.4,0.4,2.2,0.4c1,0,1.7-0.2,2.2-0.5
		c0.5-0.3,0.7-0.8,0.7-1.3c0-0.4-0.1-0.7-0.4-1c-0.3-0.3-0.6-0.5-1-0.6c-0.4-0.1-0.9-0.3-1.7-0.5c-0.9-0.2-1.6-0.4-2.2-0.6
		c-0.6-0.2-1-0.5-1.4-1c-0.4-0.5-0.6-1.1-0.6-1.8c0-0.6,0.2-1.2,0.5-1.7c0.3-0.5,0.8-0.9,1.5-1.2s1.5-0.5,2.5-0.5
		c0.7,0,1.4,0.1,2.1,0.3c0.7,0.2,1.3,0.4,1.8,0.8l-0.6,1.4c-0.5-0.3-1-0.6-1.6-0.7c-0.6-0.2-1.1-0.2-1.7-0.2c-1,0-1.7,0.2-2.2,0.5
		s-0.7,0.8-0.7,1.4c0,0.4,0.1,0.7,0.4,1c0.3,0.3,0.6,0.5,1,0.6s1,0.3,1.6,0.5c0.9,0.2,1.6,0.4,2.2,0.6c0.5,0.2,1,0.5,1.4,1
		c0.4,0.4,0.6,1,0.6,1.8c0,0.6-0.2,1.2-0.5,1.7c-0.3,0.5-0.9,0.9-1.6,1.2c-0.7,0.3-1.5,0.5-2.6,0.5
		C207.2,14.1,206.4,13.9,205.5,13.6z"/>
	<path d="M217.1,13.6c-0.8-0.3-1.5-0.6-2-1.1l0.6-1.3c0.5,0.4,1,0.7,1.8,1c0.7,0.3,1.4,0.4,2.2,0.4c1,0,1.7-0.2,2.2-0.5
		c0.5-0.3,0.7-0.8,0.7-1.3c0-0.4-0.1-0.7-0.4-1c-0.3-0.3-0.6-0.5-1-0.6c-0.4-0.1-0.9-0.3-1.7-0.5c-0.9-0.2-1.6-0.4-2.2-0.6
		c-0.6-0.2-1-0.5-1.4-1c-0.4-0.5-0.6-1.1-0.6-1.8c0-0.6,0.2-1.2,0.5-1.7c0.3-0.5,0.8-0.9,1.5-1.2s1.5-0.5,2.5-0.5
		c0.7,0,1.4,0.1,2.1,0.3c0.7,0.2,1.3,0.4,1.8,0.8l-0.6,1.4c-0.5-0.3-1-0.6-1.6-0.7c-0.6-0.2-1.1-0.2-1.7-0.2c-1,0-1.7,0.2-2.2,0.5
		s-0.7,0.8-0.7,1.4c0,0.4,0.1,0.7,0.4,1c0.3,0.3,0.6,0.5,1,0.6s1,0.3,1.6,0.5c0.9,0.2,1.6,0.4,2.2,0.6c0.5,0.2,1,0.5,1.4,1
		c0.4,0.4,0.6,1,0.6,1.8c0,0.6-0.2,1.2-0.5,1.7c-0.3,0.5-0.9,0.9-1.6,1.2c-0.7,0.3-1.5,0.5-2.6,0.5C218.8,14.1,218,13.9,217.1,13.6z
		"/>
	<path d="M227.9,2h1.7v12h-1.7V2z"/>
	<path d="M236.3,13.3c-1-0.5-1.7-1.3-2.3-2.2c-0.6-0.9-0.8-2-0.8-3.1s0.3-2.2,0.8-3.1c0.6-0.9,1.3-1.7,2.3-2.2
		c1-0.5,2.1-0.8,3.3-0.8c1.2,0,2.3,0.3,3.2,0.8c1,0.5,1.7,1.3,2.3,2.2c0.5,0.9,0.8,2,0.8,3.1s-0.3,2.2-0.8,3.1s-1.3,1.7-2.3,2.2
		c-1,0.5-2,0.8-3.2,0.8C238.3,14.1,237.2,13.8,236.3,13.3z M241.9,11.9c0.7-0.4,1.3-0.9,1.7-1.6s0.6-1.5,0.6-2.3
		c0-0.9-0.2-1.6-0.6-2.3c-0.4-0.7-1-1.2-1.7-1.6c-0.7-0.4-1.5-0.6-2.4-0.6s-1.7,0.2-2.4,0.6s-1.3,0.9-1.7,1.6
		c-0.4,0.7-0.6,1.5-0.6,2.3c0,0.9,0.2,1.6,0.6,2.3s1,1.2,1.7,1.6c0.7,0.4,1.5,0.6,2.4,0.6S241.2,12.3,241.9,11.9z"/>
	<path d="M259.8,2v12h-1.4L251.2,5v8.9h-1.7V2h1.4l7.2,8.9V2H259.8z"/>
	<path d="M265.2,13.6c-0.8-0.3-1.5-0.6-2-1.1l0.6-1.3c0.5,0.4,1,0.7,1.8,1c0.7,0.3,1.4,0.4,2.2,0.4c1,0,1.7-0.2,2.2-0.5
		c0.5-0.3,0.7-0.8,0.7-1.3c0-0.4-0.1-0.7-0.4-1c-0.3-0.3-0.6-0.5-1-0.6c-0.4-0.1-0.9-0.3-1.7-0.5c-0.9-0.2-1.6-0.4-2.2-0.6
		c-0.6-0.2-1-0.5-1.4-1c-0.4-0.5-0.6-1.1-0.6-1.8c0-0.6,0.2-1.2,0.5-1.7c0.3-0.5,0.8-0.9,1.5-1.2s1.5-0.5,2.5-0.5
		c0.7,0,1.4,0.1,2.1,0.3c0.7,0.2,1.3,0.4,1.8,0.8l-0.6,1.4c-0.5-0.3-1-0.6-1.6-0.7c-0.6-0.2-1.1-0.2-1.7-0.2c-1,0-1.7,0.2-2.2,0.5
		s-0.7,0.8-0.7,1.4c0,0.4,0.1,0.7,0.4,1c0.3,0.3,0.6,0.5,1,0.6s1,0.3,1.6,0.5c0.9,0.2,1.6,0.4,2.2,0.6c0.5,0.2,1,0.5,1.4,1
		c0.4,0.4,0.6,1,0.6,1.8c0,0.6-0.2,1.2-0.5,1.7c-0.3,0.5-0.9,0.9-1.6,1.2c-0.7,0.3-1.5,0.5-2.6,0.5
		C266.9,14.1,266.1,13.9,265.2,13.6z"/>
</g>
</svg>
